<svg width="32" height="32" viewBox="0 0 32 32" fill="none" xmlns="http://www.w3.org/2000/svg">
<path d="M0 32V0H32V32H0Z" fill="#FFD600"/>
<path d="M20.7953 23.6187C21.4 24.6357 22.0572 25.6101 23.4494 25.6101C24.6187 25.6101 25.2322 25.0084 25.2322 24.1761C25.2322 23.1799 24.5978 22.8262 23.3113 22.2462L22.6061 21.935C20.5707 21.0411 19.2169 19.921 19.2169 17.555C19.2169 15.3745 20.8293 13.7152 23.3489 13.7152C25.1431 13.7152 26.4321 14.3585 27.362 16.0432L25.1649 17.4971C24.6816 16.6032 24.159 16.2512 23.3489 16.2512C22.5222 16.2512 21.9987 16.7914 21.9987 17.4971C21.9987 18.3693 22.523 18.7222 23.7334 19.2623L24.4387 19.5735C26.8377 20.6312 28.1905 21.7115 28.1905 24.1399C28.1905 26.7564 26.1944 28.1905 23.5149 28.1905C20.894 28.1905 19.4057 26.8288 18.5772 25.1432L20.7953 23.6187ZM10.6698 23.6929C11.112 24.5126 11.7841 25.1432 12.7507 25.1432C13.6753 25.1432 14.2075 24.7651 14.2075 23.2948V13.7143H17.1203V23.7581C17.1203 26.8044 15.4136 28.1905 12.9211 28.1905C10.6689 28.1905 9.04343 26.6108 8.38098 25.1432L10.6698 23.6929Z" fill="#000001"/>
</svg>
