<svg width="32" height="32" viewBox="0 0 32 32" fill="none" xmlns="http://www.w3.org/2000/svg">
<path d="M16.5053 32C16.0673 32 15.6331 31.888 15.2492 31.6713L11.2502 29.3534C10.6527 29.0262 10.9442 28.9104 11.1411 28.844C11.9378 28.5713 12.0989 28.5093 12.949 28.0365C13.0383 27.9864 13.1551 28.0043 13.2467 28.0574L16.3191 29.8419C16.4298 29.901 16.5878 29.901 16.69 29.8419L28.6693 23.0735C28.78 23.0115 28.8525 22.886 28.8525 22.7567V9.22647C28.8525 9.09126 28.7807 8.971 28.667 8.90377L16.6931 2.1405C16.5824 2.07626 16.4351 2.07626 16.3245 2.1405L4.35205 8.90302C4.23605 8.96726 4.16203 9.0935 4.16203 9.22273V22.7537C4.16203 22.883 4.23376 23.0062 4.34824 23.0675L7.62905 24.9223C9.41026 25.794 10.4985 24.7669 10.4985 23.7338V10.3798C10.4985 10.1893 10.6512 10.0422 10.8465 10.0422H12.3637C12.5529 10.0422 12.7086 10.1886 12.7086 10.3798V23.7405C12.7086 26.0652 11.4136 27.4008 9.16147 27.4008C8.46853 27.4008 7.92287 27.4008 6.39961 26.6672L3.25692 24.8946C2.48003 24.4539 2 23.6315 2 22.7545V9.22348C2 8.34278 2.48003 7.52109 3.25616 7.08634L15.2484 0.314857C16.007 -0.104952 17.0144 -0.104952 17.7676 0.314857L29.7446 7.08932C30.5169 7.52631 31 8.34576 31 9.22647V22.7575C31 23.6352 30.5169 24.4539 29.7438 24.8946L17.7668 31.6653C17.383 31.8827 16.948 31.994 16.5046 31.994" fill="#21A366"/>
<path d="M20.1873 21.9866C15.0724 21.9866 14 19.6311 14 17.656C14 17.4685 14.1512 17.3183 14.3389 17.3183H15.8492C16.016 17.3183 16.1568 17.4401 16.1828 17.6052C16.4107 19.1485 17.0899 19.927 20.1828 19.927C22.6464 19.927 23.6943 19.3689 23.6943 18.0579C23.6943 17.3034 23.3956 16.7431 19.5684 16.3673C16.3668 16.0506 14.3888 15.3431 14.3888 12.7748C14.3888 10.4089 16.3787 9 19.7114 9C23.4545 9 25.3096 10.3036 25.5435 13.1035C25.5524 13.2006 25.5174 13.294 25.4526 13.365C25.3886 13.4322 25.2977 13.4733 25.2039 13.4733H23.6853C23.5275 13.4733 23.3897 13.362 23.3577 13.2088C22.992 11.5855 22.108 11.0663 19.7055 11.0663C17.0162 11.0663 16.7034 12.0053 16.7034 12.7098C16.7034 13.5637 17.0721 13.8132 20.7004 14.295C24.2938 14.7731 26 15.4485 26 17.9817C26 20.5351 23.8753 22 20.1709 22" fill="#21A366"/>
</svg>
