<svg width="107" height="107" viewBox="0 0 107 107" fill="none" xmlns="http://www.w3.org/2000/svg">
<path d="M87.3973 37.032C86.2688 36.6559 85.1402 36.3006 84.0117 35.9662C84.1998 35.193 84.367 34.4197 84.5342 33.6465C87.1047 21.191 85.4119 11.1807 79.7066 7.87872C74.2104 4.72306 65.2449 8.00411 56.175 15.9037C55.2764 16.677 54.3986 17.492 53.5627 18.307C52.9984 17.7637 52.4133 17.2203 51.8281 16.6979C42.3193 8.25489 32.7896 4.70216 27.0844 8.02501C21.609 11.2016 19.9789 20.6268 22.2777 32.4135C22.5076 33.5838 22.7584 34.7332 23.051 35.9035C21.7135 36.2797 20.3969 36.6977 19.1639 37.1365C8.0041 41.0027 0 47.1051 0 53.4164C0 59.9367 8.52656 66.4779 20.1252 70.4487C21.0656 70.7621 22.0061 71.0756 22.9674 71.3473C22.6539 72.6012 22.3822 73.8342 22.1314 75.109C19.9371 86.7076 21.6508 95.903 27.1262 99.0586C32.7688 102.319 42.2566 98.975 51.4937 90.8873C52.2252 90.2395 52.9566 89.5707 53.6881 88.8602C54.6076 89.7588 55.5689 90.6156 56.5303 91.4516C65.4748 99.1422 74.3148 102.256 79.7693 99.1004C85.4119 95.8403 87.251 85.9553 84.8686 73.9178C84.6805 72.9983 84.4715 72.0578 84.2416 71.0965C84.9104 70.9084 85.5582 70.6994 86.2061 70.4904C98.2645 66.4988 107 60.0412 107 53.4164C107 47.0842 98.766 40.9401 87.3973 37.032V37.032ZM59.1217 19.2893C66.8959 12.5182 74.1477 9.86407 77.4496 11.7658C80.9814 13.793 82.3398 21.9852 80.1246 32.7479C79.9783 33.4584 79.832 34.1481 79.6439 34.8377C75.0045 33.7928 70.3023 33.0404 65.5793 32.6225C62.8625 28.7354 59.8949 25.0154 56.6766 21.5254C57.4916 20.7522 58.2857 20.0207 59.1217 19.2893V19.2893ZM34.9422 64.2627C36.008 66.0809 37.0947 67.899 38.2441 69.6754C34.984 69.3201 31.7447 68.7977 28.5473 68.108C29.4668 65.0986 30.6162 61.9848 31.9537 58.8082C32.915 60.6473 33.8973 62.4654 34.9422 64.2627V64.2627ZM28.61 39.1219C31.6193 38.4531 34.8168 37.9098 38.1396 37.4918C37.032 39.2264 35.9453 41.0027 34.9213 42.8C33.8973 44.5764 32.8941 46.3945 31.9537 48.2336C30.6371 45.1197 29.5295 42.0686 28.61 39.1219ZM34.3361 53.5209C35.7154 50.6369 37.2201 47.8156 38.8084 45.0361C40.3967 42.2567 42.1104 39.5608 43.9076 36.9067C47.0424 36.6768 50.2398 36.5514 53.5 36.5514C56.7602 36.5514 59.9785 36.6768 63.0924 36.9067C64.8687 39.5399 66.5615 42.2358 68.1707 44.9944C69.7799 47.7529 71.2846 50.5742 72.7057 53.4373C71.3055 56.3213 69.8008 59.1635 68.1916 61.9639C66.6033 64.7434 64.9105 67.4393 63.1342 70.1143C60.0203 70.3442 56.7811 70.4487 53.5 70.4487C50.2189 70.4487 47.0424 70.3442 43.9703 70.1561C42.1521 67.502 40.4385 64.7852 38.8293 62.0057C37.2201 59.2262 35.7363 56.4049 34.3361 53.5209ZM72.0787 64.2209C73.1445 62.3819 74.1477 60.5219 75.1299 58.641C76.4674 61.6713 77.6377 64.7434 78.6617 67.899C75.4225 68.6305 72.1414 69.1947 68.8395 69.5709C69.968 67.8154 71.0338 66.0182 72.0787 64.2209ZM75.0881 48.2336C74.1059 46.3945 73.1027 44.5555 72.0578 42.7582C71.0338 40.9819 69.968 39.2264 68.8604 37.4918C72.225 37.9098 75.4434 38.474 78.4527 39.1637C77.4914 42.2567 76.3629 45.266 75.0881 48.2336V48.2336ZM53.5418 24.7229C55.7361 27.1053 57.8051 29.6131 59.7277 32.2045C55.5898 32.0164 51.4311 32.0164 47.2932 32.2045C49.3412 29.5086 51.452 27.0008 53.5418 24.7229ZM29.2996 11.9121C32.8105 9.86407 40.6057 12.7899 48.8188 20.0625C49.3412 20.5223 49.8637 21.0238 50.407 21.5254C47.1678 25.0154 44.1793 28.7354 41.4416 32.6225C36.7186 33.0404 32.0373 33.7719 27.3979 34.7959C27.1262 33.7301 26.8963 32.6434 26.6664 31.5567C24.702 21.4418 25.9977 13.8139 29.2996 11.9121V11.9121ZM24.1795 67.0004C23.3018 66.7496 22.4449 66.478 21.5881 66.1854C17.1367 64.7852 12.0793 62.5699 8.42207 59.6651C6.31133 58.2022 4.89023 55.9451 4.49316 53.4164C4.49316 49.592 11.0971 44.7018 20.6268 41.3789C21.818 40.961 23.0301 40.5848 24.2422 40.2295C25.6633 44.7645 27.377 49.2158 29.3623 53.5209C27.3561 57.8887 25.6215 62.4028 24.1795 67.0004V67.0004ZM48.5471 87.4809C45.0988 90.6365 41.1072 93.1444 36.7604 94.858C34.4406 95.9656 31.7656 96.0701 29.3832 95.1297C26.0604 93.2071 24.6811 85.8299 26.5619 75.9031C26.7918 74.7328 27.0426 73.5625 27.3352 72.4131C32.0164 73.4162 36.7395 74.1059 41.5252 74.4611C44.2838 78.3692 47.3141 82.11 50.5533 85.6209C49.8846 86.2688 49.2158 86.8957 48.5471 87.4809ZM53.6672 82.4026C51.5355 80.1037 49.4039 77.5541 47.335 74.8164C49.3412 74.9 51.4102 74.9418 53.5 74.9418C55.6525 74.9418 57.7633 74.9 59.8531 74.7955C57.9305 77.4496 55.8615 79.9783 53.6672 82.4026V82.4026ZM80.9814 88.6721C80.7934 91.2217 79.5395 93.6041 77.5332 95.2133C74.2104 97.136 67.1258 94.6281 59.477 88.066C58.5992 87.3137 57.7215 86.4987 56.8229 85.6627C60.0203 82.1309 62.967 78.3901 65.642 74.4611C70.4277 74.0641 75.1926 73.3326 79.8947 72.2668C80.1037 73.1236 80.2918 73.9805 80.459 74.8164C81.483 79.3305 81.6502 84.0326 80.9814 88.6721V88.6721ZM84.785 66.2063C84.1998 66.3944 83.6147 66.5824 83.0086 66.7496C81.5457 62.1938 79.7484 57.7424 77.6795 53.4164C79.6857 49.1531 81.3785 44.7645 82.7996 40.2713C83.8863 40.5848 84.9313 40.9192 85.9344 41.2535C95.673 44.5973 102.507 49.5711 102.507 53.3746C102.507 57.4707 95.2133 62.758 84.785 66.2063ZM53.5 63.0715C58.7873 63.0715 63.0715 58.7873 63.0715 53.5C63.0715 48.2127 58.7873 43.9285 53.5 43.9285C48.2127 43.9285 43.9285 48.2127 43.9285 53.5C43.9285 58.7873 48.2127 63.0715 53.5 63.0715Z" fill="#61DAFB"/>
</svg>
