<svg width="32" height="32" viewBox="0 0 32 32" fill="none" xmlns="http://www.w3.org/2000/svg">
<path d="M32 0H0V32H32V0Z" fill="#1976D2"/>
<path d="M19 15H8V17.72H11.9453V30H15.0713V17.72H19V15Z" fill="white"/>
<path d="M29.3444 18.4049C29.3444 18.4049 27.9278 17.409 26.3264 17.409C24.7251 17.409 24.1488 18.2111 24.1488 19.0683C24.1488 21.2806 30 21.0592 30 25.5114C30 32.3697 21.0785 29.3278 21.0785 29.3278V26.0377C21.0785 26.0377 22.7845 27.3929 24.8305 27.3929C26.8766 27.3929 26.7989 25.9826 26.7989 25.7888C26.7989 23.7427 21 23.7427 21 19.207C21 13.0404 29.449 15.4732 29.449 15.4732L29.3444 18.4049Z" fill="white"/>
</svg>
